<?xml version="1.0" encoding="UTF-8" standalone="no"?>
<!-- Created with Inkscape (http://www.inkscape.org/) -->

<svg
     xmlns:dc="http://purl.org/dc/elements/1.1/"
     xmlns:cc="http://creativecommons.org/ns#"
     xmlns:rdf="http://www.w3.org/1999/02/22-rdf-syntax-ns#"
     xmlns:svg="http://www.w3.org/2000/svg"
     xmlns="http://www.w3.org/2000/svg"
     xmlns:sodipodi="http://sodipodi.sourceforge.net/DTD/sodipodi-0.dtd"
     xmlns:inkscape="http://www.inkscape.org/namespaces/inkscape"
     width="3777.6875"
     height="2242"
     id="svg2"
     version="1.1"
     inkscape:version="0.48.5 r10040"
     sodipodi:docname="rainbowRecourse02.svg">
    <defs
         id="defs4" />
    <sodipodi:namedview
         id="base"
         pagecolor="#ffffff"
         bordercolor="#666666"
         borderopacity="1.0"
         inkscape:pageopacity="0.0"
         inkscape:pageshadow="2"
         inkscape:zoom="0.55"
         inkscape:cx="2696.0048"
         inkscape:cy="275.37643"
         inkscape:document-units="px"
         inkscape:current-layer="layer1"
         showgrid="false"
         fit-margin-top="0"
         fit-margin-left="0"
         fit-margin-right="0"
         fit-margin-bottom="0"
         borderlayer="true"
         inkscape:showpageshadow="false" />
    <metadata
         id="metadata7">
        <rdf:RDF>
            <cc:Work
                 rdf:about="">
                <dc:format>image/svg+xml</dc:format>
                <dc:type
                     rdf:resource="http://purl.org/dc/dcmitype/StillImage" />
                <dc:title></dc:title>
            </cc:Work>
        </rdf:RDF>
    </metadata>
    <g
         inkscape:label="Layer 1"
         inkscape:groupmode="layer"
         id="layer1"
         transform="translate(1018.8438,-4771.375)">
        <rect
             style="color:#000000;fill:#e22d1a;fill-opacity:1;fill-rule:nonzero;stroke:none;stroke-width:1;marker:none;visibility:visible;display:inline;overflow:visible;enable-background:accumulate"
             id="rect3993"
             width="3611.4287"
             height="2250"
             x="-848.57141"
             y="4767.3623" />
        <path
             inkscape:connector-curvature="0"
             id="path4013"
             d="M 2425.2298,7021.1314 C 2429.2529,7001.6242 2464.4385,6673.0482 2478.6481,6522.294 2522.6277,6055.698 2545.711,5667.2259 2559.8954,5154.9667 2563.5919,5021.4669 2564.9547,4577.1912 2562.1515,4419.5323 2552.0083,3849.083 2519.05,3300.1013 2462.2308,2755.1599 2458.0705,2715.2609 2454.6668,2680.2068 2454.6668,2677.262 L 2454.6668,2671.908 2641.814,2671.908 2828.9612,2671.908 2828.9612,4849.1808 2828.9612,7026.4536 2626.5467,7026.4536 2424.1323,7026.4536 2425.2298,7021.1314 z"
             style="fill:#e22d1a" />
        <path
             inkscape:connector-curvature="0"
             id="path3999"
             d="M -1040.8571,5892.3622 -1040.8571,4767.3622 -27.7031,4767.3622 985.4509,4767.3622 984.7992,4780.2398 C 983.2363,4811.1207 975.2599,4831.7454 959.0295,4846.8734 951.326,4854.0537 942.8957,4858.6464 924.9855,4865.4202 906.7044,4872.3342 898.6965,4876.338 889.4951,4883.1647 869.5189,4897.9855 851.4176,4924.2667 834.6032,4962.8622 831.4882,4970.0122 823.646,4989.1372 817.1761,5005.3622 798.2678,5052.7793 791.3727,5068.1286 779.3249,5089.6236 765.0309,5115.1264 750.2449,5135.1284 731.1734,5154.7617 711.6676,5174.842 699.1669,5185.208 655.6429,5217.3944 596.1698,5261.3751 566.3371,5289.7412 533.1532,5333.8622 431.8969,5468.4914 379.8952,5690.9703 397.702,5913.3622 409.5274,6061.0506 451.1494,6195.9972 514.9065,6293.3622 534.484,6323.2594 553.3615,6346.5822 577.6408,6370.8695 598.2579,6391.4933 616.7859,6406.8971 657.7644,6437.4825 697.5345,6467.166 711.7239,6478.8033 727.6526,6494.8007 755.08,6522.3465 776.0135,6553.4333 794.9566,6594.7488 798.7678,6603.0612 808.7398,6626.9248 817.1167,6647.7792 843.0615,6712.3692 852.407,6730.5547 871.1279,6752.8792 884.3766,6768.6784 897.7786,6777.5676 922.4163,6786.8978 941.0819,6793.9664 946.88,6796.8101 954.8654,6802.8129 977.0573,6819.4948 987.8594,6853.014 984.2075,6893.8622 983.5682,6901.0122 981.5115,6917.4582 979.6371,6930.4088 974.9257,6962.9592 973.7629,6978.549 974.4757,6999.6122 L 975.0764,7017.3622 -32.8904,7017.3622 -1040.8571,7017.3622 -1040.8571,5892.3622 z"
             style="fill:#002381;fill-opacity:1" />
        <path
             inkscape:connector-curvature="0"
             id="path3995"
             d="M 1028.7864,6982.3684 C 984.84049,6903.553 942.26592,6838.5213 834.01823,6684.8637 730.87627,6538.4534 683.74779,6467.3197 629.9514,6376.8545 397.35348,5985.7126 263.3412,5517.4723 228.1746,4973.0434 219.86461,4844.3956 218.35518,4647.2402 224.76656,4527.9121 254.48684,3974.7503 378.66722,3510.5257 602.95274,3114.1363 663.39625,3007.3117 712.91693,2931.3445 837.2943,2754.6444 L 895.53166,2671.908 964.25539,2671.908 C 1021.9291,2671.908 1032.7922,2672.3392 1031.8153,2674.5902 1028.3381,2682.602 994.81182,2793.9572 979.01551,2849.9605 854.39692,3291.7781 780.75899,3789.3094 756.73432,4351.7949 747.29204,4572.8609 747.30407,4869.316 756.76431,5093.0353 781.69691,5682.6588 862.50248,6205.7245 999.75317,6665.9379 1031.2876,6771.6749 1080.3387,6917.6455 1113.2576,7003.7132 L 1121.9553,7026.4536 1087.63,7026.3977 1053.3051,7026.3415 1028.7864,6982.3684 z"
             style="fill:#4ce55c;fill-opacity:1" />
        <path
             inkscape:connector-curvature="0"
             id="path4009"
             d="M 1016.6361,7021.1314 C 1091.0409,6965.7765 1201.8346,5889.8198 1199.1018,5433.6576 1197.7358,5197.4274 1197.7382,4247.5378 1199.1052,4010.205 1202.2581,3462.8446 1205.6486,3160.5393 1213.5016,2726.5817 L 1214.491,2671.908 1399.4371,2671.908 1584.3833,2671.908 1587.4882,2751.7413 C 1609.6588,3321.8073 1621.5904,3845.9934 1625.4506,4419.5323 1631.8423,5272.8698 1537.4109,6701.5252 1264.1248,7022.0991 L 1263.7058,7026.4536 C 1146.0038,7026.4536 1134.3432,7026.4536 1016.6412,7026.4536 z"
             style="fill:#fb9601"
             sodipodi:nodetypes="ccsscccsccccc" />
        <path
             inkscape:connector-curvature="0"
             id="path3997"
             d="M 984.83812,7025.0021 C 983.80773,7022.5252 1043.8839,7048.4865 1032.7802,6998.7203 916.01371,6475.3786 772.57707,5782.0417 754.15289,5093.0353 748.17049,4869.316 748.16288,4572.8609 754.13393,4351.7949 769.32648,3789.3105 815.87429,3291.9711 894.69591,2849.9605 904.9453,2792.4844 923.37153,2695.4311 927.30622,2678.1979 L 928.74227,2671.908 1081.5862,2671.908 1234.4299,2671.908 1234.4281,2683.0363 C 1234.427,2689.1568 1233.5094,2722.4691 1232.3888,2757.0636 1214.1282,3320.8162 1205.4549,4059.7021 1207.2179,4901.4353 1216.8327,5380.7279 1242.6384,6436.4586 1029.1039,7021.1314 L 1054.4072,7026.4536 z"
             style="fill:#f1f13a;fill-opacity:1"
             sodipodi:nodetypes="csssscccccscccc" />
        <path
             inkscape:connector-curvature="0"
             id="path4001"
             d="M -705.63978,4264.1819 C -707.69586,4265.5085 -709.0484,4266.3913 -711.27366,4267.8244 -771.13784,4306.3867 -796.98749,4325.1476 -828.5898,4352.9039 -936.91053,4448.0414 -1000.765,4579.3927 -1013.0701,4732.3522 -1014.5379,4750.5985 -1014.5558,4803.9026 -1013.0922,4822.2645 -1000.8671,4975.644 -937.98226,5105.223 -828.89917,5201.8574 -797.70383,5229.4923 -771.98171,5248.0692 -706.67822,5290.1467 -706.26356,5290.4137 -706.04785,5290.5688 -705.63978,5290.8318 L -705.63978,5178.1621 C -753.27065,5083.4286 -782.56719,4979.0705 -793.48335,4865.1829 -799.06911,4806.9073 -798.64629,4738.5513 -792.33448,4678.2535 -781.06597,4570.6025 -751.68778,4468.8329 -705.63978,4376.9236 L -705.63978,4264.1819 z"
             style="fill:#000085;fill-opacity:1" />
        <path
             style="fill:#0000aa;fill-opacity:1"
             d="M -463.6717,4030.18 C -466.52338,4032.0751 -468.3993,4033.3358 -471.48563,4035.3832 -554.51472,4090.467 -590.36707,4117.2657 -634.19812,4156.9135 -784.4344,4292.8115 -872.9979,4480.4385 -890.06454,4698.9312 -892.10029,4724.9948 -892.12511,4801.136 -890.09512,4827.3647 -873.1395,5046.4578 -785.92085,5231.5531 -634.62723,5369.5889 -591.36063,5409.0637 -555.68512,5435.5993 -465.11197,5495.7042 -464.53684,5496.0859 -464.23767,5496.3073 -463.6717,5496.683 L -463.6717,5335.7415 C -529.73367,5200.4212 -570.36674,5051.3521 -585.507,4888.6713 -593.25421,4805.4281 -592.66775,4707.7862 -583.91355,4621.6546 -568.28462,4467.8821 -527.5383,4322.5109 -463.6717,4191.2241 L -463.6717,4030.18 z"
             id="path4003"
             inkscape:connector-curvature="0" />
        <path
             inkscape:connector-curvature="0"
             id="path4005"
             d="M -85.994538,3830.6626 C -90.636335,3833.1031 -93.689855,3834.7269 -98.713608,3837.364 -233.86374,3908.3086 -292.22215,3942.8234 -363.56793,3993.8873 -608.11414,4168.915 -752.27286,4410.5666 -780.05299,4691.9714 -783.36665,4725.5396 -783.40704,4823.6045 -780.10278,4857.3857 -752.50332,5139.5632 -610.53368,5377.9542 -364.26637,5555.7354 -293.83947,5606.5768 -235.76886,5640.7526 -88.338912,5718.164 -87.402782,5718.6554 -86.915805,5718.9409 -85.994538,5719.4245 L -85.994538,5512.1424 C -193.52654,5337.8584 -259.66676,5145.8668 -284.31118,4936.3443 -296.92173,4829.1325 -295.96708,4703.3761 -281.7175,4592.4441 -256.27758,4394.395 -189.95299,4207.1661 -85.994538,4038.0772 L -85.994538,3830.6626 z"
             style="fill:#0000d4;fill-opacity:1" />
        <path
             inkscape:connector-curvature="0"
             id="path4007"
             d="M 828.89719,7013.39 C 821.32418,6991.9004 799.45007,6915.2091 782.94237,6852.2718 733.87873,6665.2115 703.49149,6582.7448 648.15984,6486.4899 613.25809,6425.775 575.85951,6375.122 523.27181,6317.3397 488.57537,6279.2161 468.79446,6259.3956 395.60108,6189.4132 269.6346,6068.9728 220.01105,6015.7763 159.8372,5936.6748 -50.577533,5660.074 -171.85504,5289.1734 -195.43647,4850.1485 -198.25965,4797.5899 -198.24762,4644.9733 -195.41633,4592.7464 -171.68059,4154.9236 -48.495274,3778.961 160.44877,3506.645 221.40776,3427.1974 271.28106,3373.5377 386.75548,3263.1585 462.43014,3190.8226 485.66923,3167.7373 517.28769,3133.4898 634.06864,3006.999 703.53921,2878.608 755.78567,2692.713 L 761.63298,2671.908 828.20004,2671.908 894.76709,2671.908 892.13587,2676.2625 C 890.68859,2678.6575 867.61608,2711.6286 840.86323,2749.5317 678.17059,2980.0341 604.08415,3100.0974 527.50702,3257.3525 363.08212,3595.008 261.32089,3999.3366 230.38272,4437.9182 218.20765,4610.5112 217.39996,4806.239 228.1746,4973.0434 263.3412,5517.4723 397.35348,5985.7126 629.9514,6376.8545 683.74779,6467.3197 730.87627,6538.4534 834.01823,6684.8637 940.4947,6836.0071 978.73861,6894.2171 1025.2949,6975.9999 1040.0986,7002.0047 1052.2106,7023.9951 1052.2106,7024.8676 1052.2106,7025.7398 1003.001,7026.4536 942.85582,7026.4536 L 833.50101,7026.4536 828.89719,7013.39 z"
             style="fill:#049cf8" />
        <path
             inkscape:connector-curvature="0"
             id="path4011"
             d="M 714.36989,7010.4869 C 710.667,6968.428 713.42211,6928.9002 724.99306,6858.0778 729.0801,6833.0634 733.56856,6801.2752 734.9679,6787.4374 742.96138,6708.3817 719.31714,6643.5102 670.74227,6611.2248 653.26337,6599.6073 640.57217,6594.1037 599.71585,6580.4235 545.78747,6562.3663 516.45243,6545.1625 487.45293,6514.5855 446.47557,6471.3797 426.01962,6436.1843 369.23018,6311.1798 350.89435,6270.8192 329.06708,6224.6347 320.72491,6208.5472 279.26119,6128.5871 233.44077,6068.4232 173.40614,6015.1123 138.54051,5984.1517 107.48196,5961.6294 20.430929,5904.1813 -19.524012,5877.8137 -67.44836,5844.9905 -86.068083,5831.2408 -249.92607,5710.2395 -367.93715,5547.3598 -450.5494,5328.1808 -549.31606,5066.1423 -580.26407,4758.2424 -537.79523,4460.1747 -498.58625,4184.9868 -396.67311,3937.9817 -252.32506,3768.2858 -179.69027,3682.8961 -114.39079,3627.9976 15.787271,3542.8794 111.05504,3480.5874 138.41728,3460.5255 181.11267,3421.663 222.85744,3383.6656 255.22186,3344.9547 286.50937,3295.5978 312.88027,3253.9973 327.97265,3224.291 369.3602,3132.5222 383.52188,3101.121 400.68733,3064.1074 407.50562,3050.2696 444.30992,2975.5737 483.93106,2924.7103 527.65609,2896.0268 547.79663,2882.8147 565.32477,2875.0659 605.33946,2861.6849 644.54231,2848.5752 662.99503,2839.6867 679.85688,2825.7903 715.38289,2796.5123 732.84208,2756.5962 736.26305,2696.8307 L 737.68952,2671.908 749.39115,2671.908 C 755.82704,2671.908 761.09277,2672.3944 761.09277,2672.9889 761.09277,2675.9217 746.32894,2725.1829 735.91458,2756.9987 685.70178,2910.3999 622.04306,3020.0245 517.28769,3133.4898 485.66923,3167.7373 462.43014,3190.8226 386.75548,3263.1585 271.28106,3373.5377 221.40776,3427.1974 160.44877,3506.645 -48.495274,3778.961 -171.68059,4154.9236 -195.41633,4592.7464 -198.24762,4644.9733 -198.25965,4797.5899 -195.43647,4850.1485 -183.59191,5070.6636 -148.08144,5269.4169 -87.379646,5454.9465 -8.6003071,5695.7287 104.2315,5889.8351 263.62007,6058.7768 299.61515,6096.9294 320.65553,6117.7555 395.60108,6189.4132 468.79446,6259.3956 488.57537,6279.2161 523.27181,6317.3397 575.85951,6375.122 613.25809,6425.775 648.15984,6486.4899 703.11326,6582.0865 734.05668,6665.8074 781.9228,6848.4011 803.29961,6929.946 825.94464,7008.4314 832.31837,7023.0667 833.70063,7026.2409 830.08617,7026.4536 774.78451,7026.4536 L 715.77557,7026.4536 714.36989,7010.4869 z"
             style="fill:#1931e3" />
        <path
             style="color:#000000;fill:#002381;fill-opacity:1;fill-rule:nonzero;stroke:none;stroke-width:1;marker:none;visibility:visible;display:inline;overflow:visible;enable-background:accumulate;stroke-linecap:butt;stroke-linejoin:miter;stroke-miterlimit:4;stroke-opacity:1;stroke-dasharray:none;stroke-dashoffset:0"
             d="M 2824.1875,5816.375 C 2778.3212,5884.7053 2733.2862,5953.7653 2677.3329,6014.245 2593.1216,6108.1669 2500.4169,6194.4681 2413.1616,6285.685 2375.2015,6325.2386 2336.1714,6363.916 2304.513,6408.8219 2242.7297,6493.1471 2195.7025,6587.8093 2163.3186,6687.1162 2139.7983,6759.4549 2120.3362,6832.8683 2099.112,6905.8515 2089.1483,6941.6202 2078.3122,6977.3558 2069.9375,7013.4375 2072.0344,7019.5075 2079.8775,7016.5155 2084.6238,7017.5838 2194.9823,7020.7724 2305.5632,7016.6464 2415.8125,7021.8125 2422.3984,7022.9728 2428.5136,7025.5753 2435.3725,7025.2893 2479.6257,7028.1728 2524.0222,7027.3725 2568.3437,7027.9674 2654.8432,7028.3814 2741.3438,7027.967 2827.8438,7028.125 2827.8438,6622.4063 2827.8437,6216.6875 2827.8438,5810.9688 2826.625,5812.7708 2825.4063,5814.5729 2824.1875,5816.375 z"
             id="path3058"
             inkscape:connector-curvature="0" />
        <path
             inkscape:connector-curvature="0"
             id="path4007-3"
             d="M 2070.5,7023.0387 C 2078.073,7001.5491 2099.9471,6924.8578 2116.4548,6861.9205 2165.5184,6674.8602 2195.9057,6592.3935 2251.2373,6496.1386 2286.1391,6435.4237 2323.5376,6384.7707 2376.1253,6326.9884 2410.8218,6288.8648 2430.6027,6269.0443 2503.7961,6199.0619 2629.7626,6078.6215 2679.3861,6025.425 2739.56,5946.3235 2949.9747,5669.7227 3071.2522,5298.8221 3094.8336,4859.7972 3097.6568,4807.2386 3097.6448,4654.622 3094.8135,4602.3951 3071.0777,4164.5723 2947.8924,3788.6097 2738.9484,3516.2937 2677.9894,3436.8461 2628.1161,3383.1864 2512.6417,3272.8072 2436.967,3200.4713 2413.7279,3177.386 2382.1095,3143.1385 2265.3285,3016.6477 2195.8579,2888.2567 2143.6115,2702.3617 L 2137.7642,2681.5567 2071.1971,2681.5567 2004.6301,2681.5567 2007.2613,2685.9112 C 2008.7086,2688.3062 2031.7811,2721.2773 2058.5339,2759.1804 2221.2266,2989.6828 2295.313,3109.7461 2371.8901,3267.0012 2536.315,3604.6567 2638.0763,4008.9853 2669.0144,4447.5669 2681.1895,4620.1599 2681.9972,4815.8877 2671.2226,4982.6921 2636.056,5527.121 2502.0437,5995.3613 2269.4458,6386.5032 2215.6494,6476.9684 2168.5209,6548.1021 2065.3789,6694.5124 1958.9025,6845.6558 1920.6585,6903.8658 1874.1023,6985.6486 1859.2986,7011.6534 1847.1866,7033.6438 1847.1866,7034.5163 1847.1866,7035.3885 1896.3962,7036.1023 1956.5413,7036.1023 L 2065.8961,7036.1023 2070.5,7023.0387 z"
             style="fill:#a2197d;fill-opacity:1" />
        <path
             inkscape:connector-curvature="0"
             id="path4011-7"
             d="M 2175.8266,7022.1466 C 2179.5295,6980.0877 2176.7744,6940.5599 2165.2034,6869.7375 2161.1164,6844.7231 2156.6279,6812.9349 2155.2286,6799.0971 2147.2351,6720.0414 2170.8793,6655.1699 2219.4542,6622.8845 2236.9331,6611.267 2249.6243,6605.7634 2290.4806,6592.0832 2344.409,6574.026 2373.744,6556.8222 2402.7435,6526.2452 2443.7209,6483.0394 2464.1769,6447.844 2520.9663,6322.8395 2539.3021,6282.4789 2561.1294,6236.2944 2569.4716,6220.2069 2610.9353,6140.2468 2656.7557,6080.0829 2716.7903,6026.772 2751.656,5995.8114 2782.7145,5973.2891 2869.7656,5915.841 2909.7205,5889.4734 2957.6448,5856.6502 2976.2646,5842.9005 3140.1226,5721.8992 3258.1336,5559.0195 3340.7459,5339.8405 3439.5125,5077.802 3470.4605,4769.9021 3427.9917,4471.8344 3388.7827,4196.6465 3286.8696,3949.6414 3142.5215,3779.9455 3069.8868,3694.5558 3004.5873,3639.6573 2874.4092,3554.5391 2779.1414,3492.2471 2751.7792,3472.1852 2709.0838,3433.3227 2667.339,3395.3253 2634.9746,3356.6144 2603.6871,3307.2575 2577.3162,3265.657 2562.2238,3235.9507 2520.8363,3144.1819 2506.6746,3112.7807 2489.5092,3075.7671 2482.6909,3061.9293 2445.8866,2987.2334 2406.2654,2936.37 2362.5404,2907.6865 2342.3998,2894.4744 2324.8717,2886.7256 2284.857,2873.3446 2245.6542,2860.2349 2227.2014,2851.3464 2210.3396,2837.45 2174.8136,2808.172 2157.3544,2768.2559 2153.9334,2708.4904 L 2152.507,2683.5677 2140.8053,2683.5677 C 2134.3694,2683.5677 2129.1037,2684.0541 2129.1037,2684.6486 2129.1037,2687.5814 2143.8675,2736.8426 2154.2819,2768.6584 2204.4947,2922.0596 2268.1534,3031.6842 2372.9088,3145.1495 2404.5272,3179.397 2427.7663,3202.4823 2503.441,3274.8182 2618.9154,3385.1974 2668.7887,3438.8571 2729.7477,3518.3047 2938.6918,3790.6207 3061.8771,4166.5833 3085.6128,4604.4061 3088.4441,4656.633 3088.4561,4809.2496 3085.633,4861.8082 3073.7884,5082.3233 3038.2779,5281.0766 2977.5761,5466.6062 2898.7968,5707.3884 2785.965,5901.4948 2626.5764,6070.4365 2590.5813,6108.5891 2569.541,6129.4152 2494.5954,6201.0729 2421.402,6271.0553 2401.6211,6290.8758 2366.9247,6328.9994 2314.337,6386.7817 2276.9384,6437.4347 2242.0366,6498.1496 2187.0832,6593.7462 2156.1398,6677.4671 2108.2737,6860.0608 2086.8969,6941.6057 2064.2518,7020.0911 2057.8781,7034.7264 2056.4958,7037.9006 2060.1103,7038.1133 2115.412,7038.1133 L 2174.4209,7038.1133 2175.8266,7022.1466 z"
             style="color:#000000;fill:#800080;fill-opacity:1;fill-rule:nonzero;stroke-width:1;stroke-linecap:butt;stroke-linejoin:miter;stroke-miterlimit:4;stroke-opacity:1;stroke-dasharray:none;stroke-dashoffset:0;marker:none;visibility:visible;display:inline;overflow:visible;enable-background:accumulate" />
    </g>
</svg>
